<?xml version="1.0" encoding="UTF-8" standalone="no"?><!DOCTYPE svg PUBLIC "-//W3C//DTD SVG 1.1//EN" "http://www.w3.org/Graphics/SVG/1.1/DTD/svg11.dtd"><svg width="100%" height="100%" viewBox="0 0 1467 2689" version="1.1" xmlns="http://www.w3.org/2000/svg" xmlns:xlink="http://www.w3.org/1999/xlink" xml:space="preserve" xmlns:serif="http://www.serif.com/" style="fill-rule:evenodd;clip-rule:evenodd;stroke-linejoin:round;stroke-miterlimit:2;"><path d="M0,222.222c0,-122.73 99.492,-222.222 222.222,-222.222l1022.22,0c122.728,0 222.223,99.492 222.223,222.222l-0,2466.67l-1466.67,-0l0,-2466.67Z" style="fill:url(#_Linear1);fill-rule:nonzero;"/><path d="M0,222.222c0,-122.73 99.492,-222.222 222.222,-222.222l1022.22,0c122.728,0 222.223,99.492 222.223,222.222l-0,2466.67l-1466.67,-0l0,-2466.67Z" style="fill:url(#_Linear2);fill-rule:nonzero;"/><rect x="316.667" y="0" width="50" height="394.444" style="fill:#fff;"/><rect x="444.444" y="155.556" width="50" height="394.444" style="fill:#fff;"/><rect x="444.444" y="633.333" width="50" height="116.667" style="fill:#fff;"/><rect x="188.889" y="761.111" width="50" height="116.667" style="fill:#fff;"/><rect x="572.222" y="883.333" width="50" height="116.667" style="fill:#fff;"/><rect x="572.222" y="938.889" width="50" height="266.667" style="fill:#fff;"/><rect x="444.444" y="1277.78" width="50" height="116.667" style="fill:#fff;"/><rect x="827.778" y="0" width="50" height="116.667" style="fill:#fff;"/><rect x="955.556" y="0" width="50" height="55.556" style="fill:#fff;"/><rect x="316.667" y="977.778" width="50" height="116.667" style="fill:#fff;"/><rect x="1338.89" y="1455.56" width="50" height="116.667" style="fill:#fff;"/><rect x="188.889" y="1411.11" width="50" height="116.667" style="fill:#fff;"/><rect x="316.667" y="1183.33" width="50" height="116.667" style="fill:#fff;"/><rect x="61.111" y="1333.33" width="50" height="116.667" style="fill:#fff;"/><rect x="188.889" y="116.667" width="50" height="116.667" style="fill:#fff;"/><rect x="188.889" y="11.111" width="50" height="116.667" style="fill:#fff;"/><rect x="61.111" y="172.222" width="50" height="116.667" style="fill:#fff;"/><rect x="316.667" y="488.889" width="50" height="394.444" style="fill:#fff;"/><rect x="188.889" y="977.778" width="50" height="394.444" style="fill:#fff;"/><rect x="61.111" y="883.333" width="50" height="394.444" style="fill:#fff;"/><rect x="188.889" y="311.111" width="50" height="394.444" style="fill:#fff;"/><rect x="572.222" y="0" width="50" height="311.111" style="fill:#fff;"/><rect x="572.222" y="433.333" width="50" height="394.444" style="fill:#fff;"/><rect x="700" y="644.444" width="50" height="394.444" style="fill:#fff;"/><rect x="700" y="350" width="50" height="233.333" style="fill:#fff;"/><rect x="827.778" y="427.778" width="50" height="394.444" style="fill:#fff;"/><rect x="955.556" y="94.444" width="50" height="394.444" style="fill:#fff;"/><rect x="827.778" y="0" width="50" height="283.333" style="fill:#fff;"/><rect x="827.778" y="894.444" width="50" height="394.444" style="fill:#fff;"/><rect x="572.222" y="1400" width="50" height="394.444" style="fill:#fff;"/><rect x="61.111" y="1527.78" width="50" height="394.444" style="fill:#fff;"/><rect x="444.444" y="827.778" width="50" height="394.444" style="fill:#fff;"/><rect x="316.667" y="1394.44" width="50" height="394.444" style="fill:#fff;"/><rect x="444.444" y="1455.56" width="50" height="394.444" style="fill:#fff;"/><rect x="1083.33" y="166.667" width="50" height="116.667" style="fill:#fff;"/><rect x="1083.33" y="811.111" width="50" height="116.667" style="fill:#fff;"/><rect x="700" y="1088.89" width="50" height="116.667" style="fill:#fff;"/><rect x="572.222" y="1244.44" width="50" height="116.667" style="fill:#fff;"/><rect x="1083.33" y="1022.22" width="50" height="116.667" style="fill:#fff;"/><rect x="955.556" y="622.222" width="50" height="116.667" style="fill:#fff;"/><rect x="955.556" y="1294.44" width="50" height="116.667" style="fill:#fff;"/><rect x="827.778" y="311.111" width="50" height="61.111" style="fill:#fff;"/><rect x="1211.11" y="416.667" width="50" height="116.667" style="fill:#fff;"/><rect x="1211.11" y="622.222" width="50" height="116.667" style="fill:#fff;"/><rect x="1338.89" y="361.111" width="50" height="116.667" style="fill:#fff;"/><rect x="1338.89" y="166.667" width="50" height="116.667" style="fill:#fff;"/><rect x="1211.11" y="38.889" width="50" height="394.444" style="fill:#fff;"/><rect x="1083.33" y="11.111" width="50" height="77.778" style="fill:#fff;"/><rect x="700" y="5.556" width="50" height="77.778" style="fill:#fff;"/><rect x="1083.33" y="361.111" width="50" height="394.444" style="fill:#fff;"/><rect x="1338.89" y="544.444" width="50" height="394.444" style="fill:#fff;"/><rect x="1338.89" y="994.444" width="50" height="394.444" style="fill:#fff;"/><rect x="61.111" y="394.444" width="50" height="394.444" style="fill:#fff;"/><rect x="1211.11" y="827.778" width="50" height="394.444" style="fill:#fff;"/><rect x="955.556" y="844.444" width="50" height="394.444" style="fill:#fff;"/><rect x="1083.33" y="1183.33" width="50" height="394.444" style="fill:#fff;"/><rect x="1211.11" y="1288.89" width="50" height="394.444" style="fill:#fff;"/><rect x="827.778" y="1372.22" width="50" height="394.444" style="fill:#fff;"/><rect x="827.778" y="1372.22" width="50" height="394.444" style="fill:#fff;"/><rect x="700" y="1255.56" width="50" height="394.444" style="fill:#fff;"/><defs><linearGradient id="_Linear1" x1="0" y1="0" x2="1" y2="0" gradientUnits="userSpaceOnUse" gradientTransform="matrix(1.64647e-13,2688.89,-2688.89,1.64647e-13,733.333,0)"><stop offset="0" style="stop-color:#ffe478;stop-opacity:1"/><stop offset="1" style="stop-color:#ffe478;stop-opacity:1"/></linearGradient><linearGradient id="_Linear2" x1="0" y1="0" x2="1" y2="0" gradientUnits="userSpaceOnUse" gradientTransform="matrix(1.64647e-13,2688.89,-2688.89,1.64647e-13,733.333,0)"><stop offset="0" style="stop-color:#ffe5a0;stop-opacity:0"/><stop offset="0.36" style="stop-color:#ffe5a0;stop-opacity:0"/><stop offset="0.58" style="stop-color:#35d0a2;stop-opacity:1"/><stop offset="1" style="stop-color:#35d0a2;stop-opacity:1"/></linearGradient></defs></svg>