<?xml version="1.0" encoding="UTF-8" standalone="no"?><!DOCTYPE svg PUBLIC "-//W3C//DTD SVG 1.1//EN" "http://www.w3.org/Graphics/SVG/1.1/DTD/svg11.dtd"><svg width="100%" height="100%" viewBox="0 0 2690 1468" version="1.1" xmlns="http://www.w3.org/2000/svg" xmlns:xlink="http://www.w3.org/1999/xlink" xml:space="preserve" xmlns:serif="http://www.serif.com/" style="fill-rule:evenodd;clip-rule:evenodd;stroke-linejoin:round;stroke-miterlimit:2;"><path d="M2467.24,0.973c122.73,0.048 222.183,99.58 222.134,222.31l-0.403,1022.22c-0.048,122.728 -99.58,222.183 -222.31,222.134l-2466.67,-0.972l0.578,-1466.67l2466.67,0.973Z" style="fill:url(#_Linear1);fill-rule:nonzero;"/><path d="M2689.32,367.727l0.019,-50l-394.444,-0.155l-0.02,50l394.445,0.155Z" style="fill:#fff;"/><path d="M2533.72,495.444l0.019,-50l-394.444,-0.156l-0.02,50l394.445,0.156Z" style="fill:#fff;"/><path d="M2055.94,495.255l0.02,-50l-116.667,-0.046l-0.02,50l116.667,0.046Z" style="fill:#fff;"/><path d="M1928.26,239.649l0.02,-50l-116.667,-0.046l-0.02,50l116.667,0.046Z" style="fill:#fff;"/><path d="M1805.89,622.934l0.02,-50l-116.666,-0.046l-0.02,50l116.666,0.046Z" style="fill:#fff;"/><path d="M1750.33,622.912l0.02,-50l-266.667,-0.105l-0.02,50l266.667,0.105Z" style="fill:#fff;"/><path d="M1411.49,495.001l0.02,-50l-116.666,-0.046l-0.02,50l116.666,0.046Z" style="fill:#fff;"/><path d="M2689.12,878.838l0.02,-50l-116.667,-0.046l-0.02,50l116.667,0.046Z" style="fill:#fff;"/><path d="M2689.07,1006.62l0.019,-50l-55.555,-0.022l-0.02,50l55.556,0.022Z" style="fill:#fff;"/><path d="M1711.55,367.342l0.02,-50l-116.667,-0.046l-0.02,49.999l116.667,0.047Z" style="fill:#fff;"/><path d="M1233.36,1389.38l0.02,-50l-116.667,-0.046l-0.02,50l116.667,0.046Z" style="fill:#fff;"/><path d="M1278.26,239.393l0.02,-50l-116.667,-0.046l-0.02,50l116.667,0.046Z" style="fill:#fff;"/><path d="M1505.99,367.26l0.02,-50l-116.667,-0.046l-0.019,50l116.666,0.046Z" style="fill:#fff;"/><path d="M1356.09,111.646l0.02,-50l-116.667,-0.046l-0.02,50l116.667,0.046Z" style="fill:#fff;"/><path d="M2572.71,239.903l0.02,-50l-116.667,-0.046l-0.019,50l116.666,0.046Z" style="fill:#fff;"/><path d="M2678.26,239.945l0.02,-50l-116.667,-0.046l-0.02,50l116.667,0.046Z" style="fill:#fff;"/><path d="M2517.2,112.104l0.02,-50l-116.667,-0.046l-0.02,50l116.667,0.046Z" style="fill:#fff;"/><path d="M2200.43,367.534l0.019,-50l-394.444,-0.155l-0.02,50l394.445,0.155Z" style="fill:#fff;"/><path d="M1711.6,239.564l0.02,-50l-394.444,-0.156l-0.02,50l394.444,0.156Z" style="fill:#fff;"/><path d="M1806.09,111.823l0.02,-50l-394.445,-0.155l-0.019,50l394.444,0.155Z" style="fill:#fff;"/><path d="M2378.26,239.827l0.02,-50l-394.445,-0.156l-0.02,50l394.445,0.156Z" style="fill:#fff;"/><path d="M2689.22,623.283l0.019,-50l-311.111,-0.123l-0.019,50l311.111,0.123Z" style="fill:#fff;"/><path d="M2255.89,623.112l0.02,-50l-394.444,-0.156l-0.02,50l394.444,0.156Z" style="fill:#fff;"/><path d="M2044.73,750.806l0.02,-50l-394.445,-0.155l-0.019,50l394.444,0.155Z" style="fill:#fff;"/><path d="M2339.17,750.922l0.02,-50l-233.333,-0.092l-0.02,50l233.333,0.092Z" style="fill:#fff;"/><path d="M2261.34,878.67l0.02,-50l-394.444,-0.156l-0.02,50l394.444,0.156Z" style="fill:#fff;"/><path d="M2594.63,1006.58l0.02,-50l-394.445,-0.156l-0.019,50l394.444,0.156Z" style="fill:#fff;"/><path d="M2689.12,878.838l0.02,-50l-283.334,-0.112l-0.019,50l283.333,0.112Z" style="fill:#fff;"/><path d="M1794.68,878.485l0.019,-50l-394.444,-0.155l-0.02,50l394.445,0.155Z" style="fill:#fff;"/><path d="M1289.22,622.731l0.02,-50l-394.445,-0.156l-0.02,50l394.445,0.156Z" style="fill:#fff;"/><path d="M1161.65,111.569l0.019,-50l-394.444,-0.156l-0.02,50l394.445,0.156Z" style="fill:#fff;"/><path d="M1861.49,495.178l0.02,-50l-394.444,-0.155l-0.02,50l394.444,0.155Z" style="fill:#fff;"/><path d="M1294.88,367.177l0.02,-50l-394.445,-0.155l-0.019,50l394.444,0.155Z" style="fill:#fff;"/><path d="M1233.72,494.931l0.019,-50l-394.444,-0.156l-0.02,50l394.445,0.156Z" style="fill:#fff;"/><path d="M2522.35,1134.33l0.02,-50l-116.666,-0.046l-0.02,50l116.666,0.046Z" style="fill:#fff;"/><path d="M1877.91,1134.07l0.02,-50l-116.667,-0.046l-0.02,50l116.667,0.046Z" style="fill:#fff;"/><path d="M1600.28,750.631l0.019,-50l-116.666,-0.046l-0.02,50l116.667,0.046Z" style="fill:#fff;"/><path d="M1444.78,622.792l0.02,-50l-116.667,-0.046l-0.019,50l116.666,0.046Z" style="fill:#fff;"/><path d="M1666.8,1133.99l0.02,-50l-116.667,-0.046l-0.02,50l116.667,0.046Z" style="fill:#fff;"/><path d="M2066.85,1006.37l0.02,-50l-116.667,-0.046l-0.019,50l116.666,0.046Z" style="fill:#fff;"/><path d="M1394.63,1006.11l0.02,-50l-116.667,-0.046l-0.019,50l116.666,0.046Z" style="fill:#fff;"/><path d="M2378.01,878.716l0.02,-50l-61.112,-0.025l-0.019,50l61.111,0.025Z" style="fill:#fff;"/><path d="M2272.3,1262.01l0.02,-50l-116.667,-0.046l-0.02,50l116.667,0.046Z" style="fill:#fff;"/><path d="M2066.75,1261.93l0.019,-50l-116.666,-0.046l-0.02,50l116.667,0.046Z" style="fill:#fff;"/><path d="M2327.81,1389.81l0.02,-50l-116.667,-0.046l-0.019,50l116.666,0.046Z" style="fill:#fff;"/><path d="M2522.25,1389.88l0.019,-50l-116.666,-0.046l-0.02,50l116.667,0.046Z" style="fill:#fff;"/><path d="M2650.08,1262.16l0.02,-50l-394.445,-0.155l-0.02,50l394.445,0.155Z" style="fill:#fff;"/><path d="M2677.91,1134.39l0.02,-50l-77.778,-0.03l-0.02,50l77.778,0.03Z" style="fill:#fff;"/><path d="M2683.62,751.058l0.02,-50l-77.778,-0.03l-0.02,50l77.778,0.03Z" style="fill:#fff;"/><path d="M2327.91,1134.25l0.02,-50l-394.445,-0.155l-0.019,50l394.444,0.155Z" style="fill:#fff;"/><path d="M2144.47,1389.74l0.02,-50l-394.445,-0.156l-0.019,50l394.444,0.156Z" style="fill:#fff;"/><path d="M1694.48,1389.56l0.02,-50l-394.445,-0.155l-0.019,50l394.444,0.155Z" style="fill:#fff;"/><path d="M2294.98,112.016l0.02,-50l-394.445,-0.156l-0.02,50l394.445,0.156Z" style="fill:#fff;"/><path d="M1861.19,1261.85l0.02,-50l-394.445,-0.156l-0.019,50l394.444,0.156Z" style="fill:#fff;"/><path d="M1844.63,1006.28l0.02,-50l-394.445,-0.156l-0.019,50l394.444,0.156Z" style="fill:#fff;"/><path d="M1505.69,1133.93l0.02,-50l-394.445,-0.156l-0.02,50l394.445,0.156Z" style="fill:#fff;"/><path d="M1400.08,1261.66l0.02,-50l-394.445,-0.155l-0.019,50l394.444,0.155Z" style="fill:#fff;"/><path d="M1316.9,878.297l0.02,-50l-394.445,-0.156l-0.02,50l394.445,0.156Z" style="fill:#fff;"/><path d="M1316.9,878.297l0.02,-50l-394.445,-0.156l-0.02,50l394.445,0.156Z" style="fill:#fff;"/><path d="M1433.62,750.565l0.02,-50l-394.445,-0.155l-0.02,50l394.445,0.155Z" style="fill:#fff;"/><path d="M2467.24,0.973c122.73,0.048 222.183,99.58 222.134,222.31l-0.403,1022.22c-0.048,122.728 -99.58,222.183 -222.31,222.134l-2466.67,-0.972l0.578,-1466.67l2466.67,0.973Z" style="fill:url(#_Linear2);fill-rule:nonzero;"/><defs><linearGradient id="_Linear1" x1="0" y1="0" x2="1" y2="0" gradientUnits="userSpaceOnUse" gradientTransform="matrix(-2688.89,-1.06052,1.06052,-2688.89,2689.18,734.394)"><stop offset="0" style="stop-color:#ffe478;stop-opacity:1"/><stop offset="1" style="stop-color:#ffe478;stop-opacity:1"/></linearGradient><linearGradient id="_Linear2" x1="0" y1="0" x2="1" y2="0" gradientUnits="userSpaceOnUse" gradientTransform="matrix(-2688.89,-1.06052,1.06052,-2688.89,2689.18,734.394)"><stop offset="0" style="stop-color:#ffe5a0;stop-opacity:0"/><stop offset="0.36" style="stop-color:#ffe5a0;stop-opacity:0"/><stop offset="1" style="stop-color:#35d0a2;stop-opacity:1"/><stop offset="0" style="stop-color:#35d0a2;stop-opacity:1"/></linearGradient></defs></svg>